<svg xmlns="http://www.w3.org/2000/svg" viewBox="0 0 555.76 464.47"><defs><style>.cls-1{fill:#148aed;}</style></defs><title>slide5aAsset 1</title><g id="Layer_2" data-name="Layer 2"><g id="Camada_1" data-name="Camada 1"><path class="cls-1" d="M473.5,0,99.31,50.16,0,174.55l64.27,79.72a73.61,73.61,0,0,0,27.68-6,76.44,76.44,0,0,0,40.55-40.56A74,74,0,0,0,138.55,178a132.43,132.43,0,0,1,10.8-50.57,135.48,135.48,0,0,1,27.91-41.6,130.15,130.15,0,0,1,41.35-28.18,125.71,125.71,0,0,1,50.56-10.27l1.77,47.49q3.9-4.69,8.23-9A132.32,132.32,0,0,1,321,57.61a127.64,127.64,0,0,1,50.83-10.27,131.6,131.6,0,0,1,50.56,9.75,128.69,128.69,0,0,1,41.08,26.59l1.05,1.06-39.5,37.92a83.57,83.57,0,0,0-23.7-15,75.43,75.43,0,0,0-29.49-5.53,74,74,0,0,0-29.76,6,78.45,78.45,0,0,0-24.49,16.59A77.5,77.5,0,0,0,301,149.52a75.76,75.76,0,0,0-6.06,30A73.87,73.87,0,0,0,301,209.29a78.32,78.32,0,0,0,41.08,41.08,73.88,73.88,0,0,0,29.76,6.06,75.43,75.43,0,0,0,29.49-5.53,83.79,83.79,0,0,0,23.7-15l11,10.53,119.73-129Z"/><path class="cls-1" d="M321,300.93a132,132,0,0,1-41.87-28.17,135.88,135.88,0,0,1-28.44-41.87,126.06,126.06,0,0,1-10.53-51.35,128,128,0,0,1,10.53-51.62A139,139,0,0,1,264,104a73.8,73.8,0,0,0-46.7,22.57A84.54,84.54,0,0,0,201,151.36a73.91,73.91,0,0,0-6.05,29.76,127.66,127.66,0,0,1-11.06,50.29,132.38,132.38,0,0,1-28.7,41.08A137.93,137.93,0,0,1,113,300.41c-2.91,1.24-5.86,2.33-8.84,3.36l129.57,160.7L376,311.11c-1.38,0-2.76.09-4.15.09A127.64,127.64,0,0,1,321,300.93Z"/></g></g></svg>